<svg width="60" height="60" viewBox="0 0 60 60" fill="none" xmlns="http://www.w3.org/2000/svg"><circle cx="30" cy="30" r="30" fill="#7B51FB"/><path d="M44.544 29.6C42.824 35.554 36.292 40 28.5 40c-.923 0-1.856-.08-2.787-.211 2.146 1.989 5.344 3.21 8.787 3.21 1.098 0 2.194-.125 3.266-.373L43 45.766V40.07c1.939-1.66 3-3.798 3-6.068 0-1.574-.506-3.076-1.456-4.4z" fill="#fff"/><path d="M17 41.618v-8.11c-1.938-2.001-3-4.474-3-7.008C14 20.159 20.505 15 28.5 15S43 20.159 43 26.5 36.495 38 28.5 38a18.2 18.2 0 01-3.552-.355L17 41.618z" fill="#fff"/></svg>